<svg version="1.2" xmlns="http://www.w3.org/2000/svg" viewBox="0 0 363 156" width="363" height="156">
	<title>730-ai</title>
	<g id="BG">
	</g>
	<g id="graphics">
		<g id="&lt;Group&gt;">
		</g>
		<g id="&lt;Group&gt;">
			<g id="&lt;Group&gt;">
			</g>
		</g>
		<g id="&lt;Group&gt;">
			<path id="&lt;Path&gt;" style="fill: #ffffff;" d="m135.1 33.6c-0.5-2.2-1.1-4.7-1.4-7.1-0.4-3.2-0.4-5.5 1.1-7.7 0.8-1.3 2.7-3.4 9.7-4.1 8.4-0.9 66.3-1.7 83.4 1.2 15.9 2.7 21.7 4.9 29.4 11.6 7.7 6.7 10.7 11.8 10.7 11.8 0 0-122.6 0-127.1 0-1.5 0-4.5-0.2-5.8-5.7z"/>
			<path id="&lt;Path&gt;" style="fill: #ffffff;" d="m274.2 32.3c0.8-3.5 1.5-3.5 1.5-3.5 4.4-2.3 9.5 0.5 12.5 2 3 1.5 7.1 4.5 4.8 7.2-2.3 2.8-12.3 5.1-14.8 5.1-2.5 0-4.8-7.3-4-10.8z"/>
			<path id="&lt;Path&gt;" style="fill: #ffffff;" d="m86.7 37.1c13.9-11.3 27.7-16.6 34.4-19 4.1-1.6 5.5-0.2 6 0.4 2.3 2.6-0.6 8.9-2.7 13.6-2.7 6.2-7.3 7.6-7.3 7.6 0 0-37.2 14-41.6 12.1-4.4-2 2-7.1 11.2-14.7z"/>
			<path id="&lt;Path&gt;" style="fill: #ffffff;" d="m65.6 41c-0.8-1.1-3.1-3.8-2.3-6.8 0.9-3.1 10.3-5.1 14.7-6.3 8.8-2.3 18-3.6 15.4-2.1-18.7 11-25.2 23.6-25.3 22.2-0.2-2.8-1.6-5.5-2.5-7z"/>
			<path id="&lt;Compound Path&gt;" fill-rule="evenodd" style="fill: #ffffff;" d="m347.4 130.3c0 3.1-74.1 5.6-165.5 5.6-91.4 0-165.4-2.5-165.4-5.6 0-1.2 12.4-2.4 33.3-3.3-1.5-1-3.3-4.1-3.9-5.6-2.1-5.2-3.5-13.9-3.5-23.8 0-13.9 2.8-25.5 6.4-28.2 0.1-3 0.3-5.3 0.5-6.3 0.8-3.5 3.2-5.7 5-6.3 3.1-2.2 16.7-9.3 14.2-3-2.5 6.3 8.3 6.5 8.3 7.4 0 0.9-2.3 5.4-1.6 19.7 0.6 14.1 13.5 13 21.1 13.4 0-0.6 0.1-6.9 0-8.9-0.6-10.9 0-20.1 3.9-28.9 5.1-11 13.3-18.2 47.2-7.1 14 4.5 24.1 10.4 31.5 16.4-30.1 1.7-32.3 1.1-31.6 5.3 0.4 2.6 1.3 6.3 3.1 6.3 1.3 0 25.9-0.5 40-0.3 3.3 4.1 5.4 7.7 6.9 10.1 8.3 14.2 33.4 15.2 59.1 12.2 16.2-1.9 17.1-12.3 18.7-23 8.3-0.5 35.1 0.2 35.1 0.2 0 0 0-6.6-2.3-9-2.4-2.4-28-2.4-30-2.4 5.1-12.5 11.6-15.6 23.6-15.4 8.1 0.2 18 13.9 18.7 28 0.6 11.8-0.2 18.3-0.4 23.7-0.5 11.7-0.2 17.5-3.2 17.6-1.7 0-2.4-0.1-6.6 0-0.3 0.7-1.5 6.8-5.8 7.5 26.8 0.9 43.2 2.3 43.2 3.7zm-245.2-39c0 14.4 2.9 26 6.5 26 3.6 0 6.5-11.6 6.5-26 0-14.3-2.9-25.9-6.5-25.9-3.6 0-6.5 11.6-6.5 25.9zm-49.3 28.6c3.1 0 5.6-10 5.6-22.3 0-12.3-2.5-22.3-5.6-22.3-3.1 0-5.6 10-5.6 22.3 0 12.3 2.5 22.3 5.6 22.3zm24.8 6.1c8.3-0.2 17.2-0.4 26.6-0.6-1.6-1.5-3.1-4.1-4.4-7.6-5.4-0.1-11.6-0.3-17.7-0.6-1.1 4.5-2.7 7.7-4.5 8.8zm104.2-1.3c36.3 0 69.9 0.4 97.2 1.1-1.6-1.2-3-3.4-4.3-6.3-48.2 0.5-123.1 1.3-138.6 1.4-0.6 1.8-1.4 3.1-2.2 4.1 15.2-0.2 31.3-0.3 47.9-0.3z"/>
		</g>
	</g>
</svg>